<svg width="876" height="1000" viewBox="0 0 876 1000" fill="none" xmlns="http://www.w3.org/2000/svg">
<path d="M717.755 207.25C776.693 276.053 813.234 360.725 823.215 450.001H643.845C635.118 403.255 614.245 359.3 582.93 322.743C540.635 273.368 482.08 240.744 417.837 230.761C353.595 220.779 287.901 234.096 232.617 268.308C177.334 302.52 136.106 355.371 116.377 417.319C96.6486 479.266 99.7205 546.227 125.038 606.108C150.356 665.989 196.25 714.843 254.434 743.85C312.618 772.856 379.255 780.102 442.314 764.279C489.002 752.564 531.45 728.775 565.602 695.684L711.938 799.412C652.168 866.475 573.392 914.421 485.52 936.47C381.376 962.602 271.32 950.635 175.227 902.73C79.1338 854.824 3.33676 774.138 -38.4765 675.241C-80.2898 576.345 -85.3633 465.757 -52.7807 363.447C-20.1981 261.138 47.8929 173.85 139.196 117.347C230.5 60.8446 338.997 38.8508 445.097 55.3376C551.196 71.8244 647.903 125.705 717.755 207.25Z" stroke="#0C013C" stroke-opacity="0.6" stroke-width="100"/>
</svg>
