<svg width="630" height="477" viewBox="0 0 630 477" fill="none" xmlns="http://www.w3.org/2000/svg">
<mask id="path-1-outside-1_187_633" maskUnits="userSpaceOnUse" x="-3" y="-2" width="635" height="481" fill="black">
<rect fill="white" x="-3" y="-2" width="635" height="481"/>
<path d="M7.75994 111V1.90909H77.9126V18.4751H27.522V44.0433H48.5625C56.9077 44.0433 64.0632 45.4105 70.0291 48.1449C76.0305 50.8437 80.6293 54.6612 83.8253 59.5973C87.0213 64.5334 88.6193 70.3395 88.6193 77.0156C88.6193 83.7273 87.0213 89.6399 83.8253 94.7536C80.6293 99.8317 76.0305 103.809 70.0291 106.685C64.0632 109.562 56.9077 111 48.5625 111H7.75994ZM27.522 94.8068H48.5625C52.9659 94.8068 56.6946 93.9723 59.7486 92.3033C62.8026 90.6342 65.1108 88.4325 66.6733 85.6982C68.2713 82.9638 69.0703 79.9986 69.0703 76.8026C69.0703 72.1861 67.2947 68.2621 63.7436 65.0305C60.228 61.7635 55.1676 60.13 48.5625 60.13H27.522V94.8068ZM105.904 1.90909H125.507V76.2699H126.519L177.815 1.90909H195.553V111H175.791V36.6925H174.885L123.429 111H105.904V1.90909ZM255.172 112.491C247.502 112.491 240.683 111.178 234.718 108.55C228.787 105.922 224.1 102.264 220.655 97.5767C217.21 92.8892 215.382 87.4737 215.169 81.3303H235.197C235.374 84.2777 236.351 86.8523 238.127 89.054C239.902 91.2202 242.264 92.907 245.211 94.1143C248.159 95.3217 251.461 95.9254 255.119 95.9254C259.025 95.9254 262.487 95.2507 265.506 93.9013C268.524 92.5163 270.886 90.5987 272.59 88.1484C274.295 85.6982 275.129 82.875 275.094 79.679C275.129 76.3764 274.277 73.4645 272.537 70.9432C270.797 68.4219 268.276 66.451 264.973 65.0305C261.706 63.6101 257.764 62.8999 253.148 62.8999H243.507V47.6655H253.148C256.948 47.6655 260.268 47.0085 263.109 45.6946C265.985 44.3807 268.24 42.5341 269.874 40.1548C271.507 37.7401 272.306 34.9524 272.271 31.7919C272.306 28.7024 271.614 26.0213 270.193 23.7486C268.808 21.4403 266.838 19.647 264.281 18.3686C261.759 17.0902 258.794 16.451 255.385 16.451C252.047 16.451 248.958 17.0547 246.117 18.2621C243.276 19.4695 240.985 21.1918 239.245 23.429C237.505 25.6307 236.582 28.2585 236.475 31.3125H217.459C217.601 25.2045 219.359 19.8423 222.732 15.2259C226.142 10.5739 230.687 6.9517 236.369 4.35938C242.051 1.73153 248.425 0.41761 255.492 0.41761C262.771 0.41761 269.093 1.7848 274.455 4.51917C279.852 7.21803 284.025 10.858 286.972 15.4389C289.92 20.0199 291.394 25.0803 291.394 30.62C291.429 36.7635 289.618 41.9126 285.96 46.0675C282.338 50.2223 277.58 52.9389 271.685 54.2173V55.0696C279.355 56.1349 285.232 58.9759 289.316 63.5923C293.436 68.1733 295.477 73.8729 295.442 80.691C295.442 86.799 293.702 92.2678 290.222 97.0973C286.777 101.891 282.019 105.656 275.946 108.39C269.909 111.124 262.985 112.491 255.172 112.491ZM314.791 111V1.90909H334.553V48.0916H385.104V1.90909H404.919V111H385.104V64.6577H334.553V111H314.791ZM426.412 111V1.90909H497.364V18.4751H446.174V48.0916H493.689V64.6577H446.174V94.4339H497.79V111H426.412ZM610.903 38.7166H590.981C590.413 35.4496 589.365 32.5554 587.838 30.0341C586.311 27.4773 584.411 25.3111 582.138 23.5355C579.866 21.7599 577.273 20.4283 574.362 19.5405C571.485 18.6172 568.378 18.1555 565.04 18.1555C559.109 18.1555 553.854 19.647 549.273 22.63C544.692 25.5774 541.105 29.9098 538.513 35.6271C535.92 41.3089 534.624 48.2514 534.624 56.4545C534.624 64.7997 535.92 71.831 538.513 77.5483C541.141 83.2301 544.727 87.527 549.273 90.4389C553.854 93.3153 559.092 94.7536 564.987 94.7536C568.254 94.7536 571.308 94.3274 574.148 93.4751C577.025 92.5874 579.599 91.2912 581.872 89.5866C584.18 87.8821 586.116 85.7869 587.678 83.3011C589.276 80.8153 590.377 77.9744 590.981 74.7784L610.903 74.8849C610.157 80.0696 608.541 84.9347 606.055 89.4801C603.605 94.0256 600.391 98.0384 596.414 101.518C592.437 104.963 587.785 107.662 582.458 109.615C577.131 111.533 571.219 112.491 564.72 112.491C555.132 112.491 546.574 110.272 539.045 105.833C531.517 101.394 525.587 94.9844 521.254 86.6037C516.922 78.223 514.756 68.1733 514.756 56.4545C514.756 44.7003 516.94 34.6506 521.308 26.3054C525.675 17.9247 531.624 11.5149 539.152 7.07599C546.68 2.63707 555.203 0.41761 564.72 0.41761C570.793 0.41761 576.439 1.26988 581.659 2.97443C586.879 4.67898 591.531 7.18253 595.615 10.4851C599.699 13.7521 603.055 17.7649 605.683 22.5234C608.346 27.2464 610.086 32.6442 610.903 38.7166ZM7.75994 293V183.909H27.522V230.092H78.0724V183.909H97.8878V293H78.0724V246.658H27.522V293H7.75994ZM216.86 238.455C216.86 250.209 214.658 260.276 210.255 268.657C205.887 277.002 199.921 283.394 192.357 287.833C184.828 292.272 176.288 294.491 166.735 294.491C157.183 294.491 148.625 292.272 141.061 287.833C133.532 283.359 127.566 276.949 123.163 268.604C118.795 260.223 116.611 250.173 116.611 238.455C116.611 226.7 118.795 216.651 123.163 208.305C127.566 199.925 133.532 193.515 141.061 189.076C148.625 184.637 157.183 182.418 166.735 182.418C176.288 182.418 184.828 184.637 192.357 189.076C199.921 193.515 205.887 199.925 210.255 208.305C214.658 216.651 216.86 226.7 216.86 238.455ZM196.991 238.455C196.991 230.18 195.695 223.202 193.103 217.521C190.546 211.803 186.995 207.489 182.449 204.577C177.904 201.629 172.666 200.156 166.735 200.156C160.805 200.156 155.567 201.629 151.022 204.577C146.476 207.489 142.907 211.803 140.315 217.521C137.758 223.202 136.48 230.18 136.48 238.455C136.48 246.729 137.758 253.724 140.315 259.442C142.907 265.124 146.476 269.438 151.022 272.386C155.567 275.298 160.805 276.754 166.735 276.754C172.666 276.754 177.904 275.298 182.449 272.386C186.995 269.438 190.546 265.124 193.103 259.442C195.695 253.724 196.991 246.729 196.991 238.455ZM235.543 293V183.909H277.305C285.188 183.909 291.74 185.152 296.96 187.638C302.216 190.088 306.14 193.444 308.732 197.705C311.36 201.967 312.674 206.796 312.674 212.194C312.674 216.633 311.822 220.433 310.117 223.593C308.412 226.718 306.122 229.257 303.246 231.21C300.369 233.163 297.155 234.566 293.604 235.418V236.484C297.475 236.697 301.186 237.886 304.737 240.053C308.324 242.183 311.253 245.202 313.526 249.108C315.799 253.014 316.935 257.737 316.935 263.277C316.935 268.923 315.568 274.001 312.834 278.511C310.099 282.986 305.98 286.519 300.476 289.112C294.971 291.704 288.047 293 279.702 293H235.543ZM255.305 276.487H276.559C283.732 276.487 288.899 275.12 292.059 272.386C295.256 269.616 296.854 266.065 296.854 261.732C296.854 258.501 296.055 255.589 294.457 252.996C292.858 250.369 290.586 248.309 287.638 246.817C284.691 245.29 281.175 244.527 277.091 244.527H255.305V276.487ZM255.305 230.305H274.854C278.263 230.305 281.335 229.683 284.069 228.44C286.804 227.162 288.952 225.369 290.515 223.06C292.113 220.717 292.912 217.947 292.912 214.751C292.912 210.525 291.42 207.045 288.437 204.31C285.49 201.576 281.104 200.209 275.28 200.209H255.305V230.305ZM431.606 238.455C431.606 250.209 429.404 260.276 425.001 268.657C420.633 277.002 414.667 283.394 407.103 287.833C399.575 292.272 391.034 294.491 381.482 294.491C371.929 294.491 363.371 292.272 355.807 287.833C348.278 283.359 342.313 276.949 337.909 268.604C333.541 260.223 331.357 250.173 331.357 238.455C331.357 226.7 333.541 216.651 337.909 208.305C342.313 199.925 348.278 193.515 355.807 189.076C363.371 184.637 371.929 182.418 381.482 182.418C391.034 182.418 399.575 184.637 407.103 189.076C414.667 193.515 420.633 199.925 425.001 208.305C429.404 216.651 431.606 226.7 431.606 238.455ZM411.737 238.455C411.737 230.18 410.441 223.202 407.849 217.521C405.292 211.803 401.741 207.489 397.195 204.577C392.65 201.629 387.412 200.156 381.482 200.156C375.551 200.156 370.313 201.629 365.768 204.577C361.222 207.489 357.653 211.803 355.061 217.521C352.504 223.202 351.226 230.18 351.226 238.455C351.226 246.729 352.504 253.724 355.061 259.442C357.653 265.124 361.222 269.438 365.768 272.386C370.313 275.298 375.551 276.754 381.482 276.754C387.412 276.754 392.65 275.298 397.195 272.386C401.741 269.438 405.292 265.124 407.849 259.442C410.441 253.724 411.737 246.729 411.737 238.455ZM520.442 183.909V200.475H470.051V293H450.289V183.909H520.442ZM629.799 238.455C629.799 250.209 627.597 260.276 623.194 268.657C618.826 277.002 612.86 283.394 605.296 287.833C597.768 292.272 589.227 294.491 579.675 294.491C570.122 294.491 561.564 292.272 554 287.833C546.472 283.359 540.506 276.949 536.102 268.604C531.735 260.223 529.551 250.173 529.551 238.455C529.551 226.7 531.735 216.651 536.102 208.305C540.506 199.925 546.472 193.515 554 189.076C561.564 184.637 570.122 182.418 579.675 182.418C589.227 182.418 597.768 184.637 605.296 189.076C612.86 193.515 618.826 199.925 623.194 208.305C627.597 216.651 629.799 226.7 629.799 238.455ZM609.931 238.455C609.931 230.18 608.634 223.202 606.042 217.521C603.485 211.803 599.934 207.489 595.389 204.577C590.843 201.629 585.605 200.156 579.675 200.156C573.744 200.156 568.507 201.629 563.961 204.577C559.416 207.489 555.847 211.803 553.254 217.521C550.698 223.202 549.419 230.18 549.419 238.455C549.419 246.729 550.698 253.724 553.254 259.442C555.847 265.124 559.416 269.438 563.961 272.386C568.507 275.298 573.744 276.754 579.675 276.754C585.605 276.754 590.843 275.298 595.389 272.386C599.934 269.438 603.485 265.124 606.042 259.442C608.634 253.724 609.931 246.729 609.931 238.455ZM17.5078 476.491V459.872H23.7401C26.5455 459.872 28.8537 459.464 30.6648 458.647C32.4759 457.83 33.9318 456.658 35.0327 455.131C36.169 453.604 37.1101 451.829 37.8558 449.805L39.294 446.129L0.302557 365.909H20.9702L48.1364 424.29L71.6271 365.909H91.9751L54.3686 454.865C52.6286 458.7 50.6222 462.269 48.3494 465.572C46.0767 468.839 43.1115 471.484 39.4538 473.509C35.8317 475.497 31.1087 476.491 25.2848 476.491H17.5078ZM106.051 475V365.909H146.96C155.341 365.909 162.372 367.472 168.054 370.597C173.771 373.722 178.086 378.018 180.998 383.487C183.945 388.92 185.419 395.099 185.419 402.024C185.419 409.02 183.945 415.234 180.998 420.668C178.05 426.101 173.7 430.38 167.947 433.505C162.194 436.594 155.11 438.139 146.694 438.139H119.581V421.893H144.03C148.931 421.893 152.944 421.04 156.069 419.336C159.194 417.631 161.502 415.288 162.993 412.305C164.52 409.322 165.284 405.895 165.284 402.024C165.284 398.153 164.52 394.744 162.993 391.797C161.502 388.849 159.176 386.559 156.015 384.925C152.89 383.256 148.86 382.422 143.924 382.422H125.813V475H106.051ZM300.063 420.455C300.063 432.209 297.861 442.276 293.458 450.657C289.09 459.002 283.124 465.394 275.56 469.833C268.032 474.272 259.491 476.491 249.939 476.491C240.386 476.491 231.828 474.272 224.264 469.833C216.735 465.359 210.77 458.949 206.366 450.604C201.998 442.223 199.814 432.173 199.814 420.455C199.814 408.7 201.998 398.651 206.366 390.305C210.77 381.925 216.735 375.515 224.264 371.076C231.828 366.637 240.386 364.418 249.939 364.418C259.491 364.418 268.032 366.637 275.56 371.076C283.124 375.515 289.09 381.925 293.458 390.305C297.861 398.651 300.063 408.7 300.063 420.455ZM280.194 420.455C280.194 412.18 278.898 405.202 276.306 399.521C273.749 393.803 270.198 389.489 265.652 386.577C261.107 383.629 255.869 382.156 249.939 382.156C244.008 382.156 238.77 383.629 234.225 386.577C229.679 389.489 226.11 393.803 223.518 399.521C220.961 405.202 219.683 412.18 219.683 420.455C219.683 428.729 220.961 435.724 223.518 441.442C226.11 447.124 229.679 451.438 234.225 454.386C238.77 457.298 244.008 458.754 249.939 458.754C255.869 458.754 261.107 457.298 265.652 454.386C270.198 451.438 273.749 447.124 276.306 441.442C278.898 435.724 280.194 428.729 280.194 420.455ZM318.746 475V365.909H360.508C368.391 365.909 374.943 367.152 380.163 369.638C385.419 372.088 389.343 375.444 391.935 379.705C394.563 383.967 395.877 388.796 395.877 394.194C395.877 398.633 395.025 402.433 393.32 405.593C391.616 408.718 389.325 411.257 386.449 413.21C383.572 415.163 380.358 416.566 376.807 417.418V418.484C380.678 418.697 384.389 419.886 387.94 422.053C391.527 424.183 394.456 427.202 396.729 431.108C399.002 435.014 400.138 439.737 400.138 445.277C400.138 450.923 398.771 456.001 396.037 460.511C393.302 464.986 389.183 468.519 383.679 471.112C378.175 473.704 371.25 475 362.905 475H318.746ZM338.508 458.487H359.762C366.935 458.487 372.102 457.12 375.263 454.386C378.459 451.616 380.057 448.065 380.057 443.732C380.057 440.501 379.258 437.589 377.66 434.996C376.062 432.369 373.789 430.309 370.841 428.817C367.894 427.29 364.378 426.527 360.295 426.527H338.508V458.487ZM338.508 412.305H358.057C361.466 412.305 364.538 411.683 367.273 410.44C370.007 409.162 372.155 407.369 373.718 405.06C375.316 402.717 376.115 399.947 376.115 396.751C376.115 392.525 374.623 389.045 371.64 386.31C368.693 383.576 364.307 382.209 358.483 382.209H338.508V412.305ZM417.33 475V365.909H437.092V412.092H487.643V365.909H507.458V475H487.643V428.658H437.092V475H417.33ZM609.491 475H589.676V382.422H571.565C566.664 382.422 562.634 383.15 559.473 384.606C556.348 386.026 554.022 388.121 552.495 390.891C551.004 393.626 550.258 396.928 550.258 400.799C550.258 404.67 551.004 407.937 552.495 410.6C553.987 413.228 556.295 415.234 559.42 416.619C562.581 417.969 566.593 418.643 571.458 418.643H597.985V435.05H568.795C560.414 435.05 553.348 433.665 547.595 430.895C541.842 428.089 537.474 424.13 534.491 419.016C531.544 413.867 530.07 407.795 530.07 400.799C530.07 393.839 531.526 387.749 534.438 382.528C537.385 377.273 541.718 373.189 547.435 370.277C553.152 367.365 560.184 365.909 568.529 365.909H609.491V475ZM553.081 425.568H574.654L548.127 475H526.075L553.081 425.568Z"/>
</mask>
<path d="M7.75994 111H5.75994V113H7.75994V111ZM7.75994 1.90909V-0.0909119H5.75994V1.90909H7.75994ZM77.9126 1.90909H79.9126V-0.0909119H77.9126V1.90909ZM77.9126 18.4751V20.4751H79.9126V18.4751H77.9126ZM27.522 18.4751V16.4751H25.522V18.4751H27.522ZM27.522 44.0433H25.522V46.0433H27.522V44.0433ZM70.0291 48.1449L69.1958 49.963L69.2023 49.966L69.2088 49.9689L70.0291 48.1449ZM83.8253 59.5973L82.1465 60.6843L83.8253 59.5973ZM83.8253 94.7536L85.518 95.8189L85.5213 95.8136L83.8253 94.7536ZM70.0291 106.685L69.1647 104.882L69.1605 104.884L70.0291 106.685ZM27.522 94.8068H25.522V96.8068H27.522V94.8068ZM66.6733 85.6982L64.9466 84.689L64.9416 84.6974L64.9368 84.7059L66.6733 85.6982ZM63.7436 65.0305L62.3821 66.4956L62.3898 66.5027L62.3975 66.5098L63.7436 65.0305ZM27.522 60.13V58.13H25.522V60.13H27.522ZM9.75994 111V1.90909H5.75994V111H9.75994ZM7.75994 3.90909H77.9126V-0.0909119H7.75994V3.90909ZM75.9126 1.90909V18.4751H79.9126V1.90909H75.9126ZM77.9126 16.4751H27.522V20.4751H77.9126V16.4751ZM25.522 18.4751V44.0433H29.522V18.4751H25.522ZM27.522 46.0433H48.5625V42.0433H27.522V46.0433ZM48.5625 46.0433C56.6955 46.0433 63.5522 47.3764 69.1958 49.963L70.8624 46.3268C64.5742 43.4446 57.1198 42.0433 48.5625 42.0433V46.0433ZM69.2088 49.9689C74.9023 52.5293 79.184 56.109 82.1465 60.6843L85.5041 58.5103C82.0745 53.2134 77.1588 49.1582 70.8494 46.3208L69.2088 49.9689ZM82.1465 60.6843C85.1055 65.2543 86.6193 70.6715 86.6193 77.0156H90.6193C90.6193 70.0075 88.9372 63.8125 85.5041 58.5103L82.1465 60.6843ZM86.6193 77.0156C86.6193 83.3961 85.1047 88.9329 82.1293 93.6936L85.5213 95.8136C88.9379 90.3469 90.6193 84.0584 90.6193 77.0156H86.6193ZM82.1326 93.6882C79.159 98.4129 74.8643 102.15 69.1647 104.882L70.8935 108.489C77.1968 105.468 82.0995 101.25 85.518 95.8189L82.1326 93.6882ZM69.1605 104.884C63.5266 107.6 56.6829 109 48.5625 109V113C57.1324 113 64.5999 111.523 70.8977 108.487L69.1605 104.884ZM48.5625 109H7.75994V113H48.5625V109ZM27.522 96.8068H48.5625V92.8068H27.522V96.8068ZM48.5625 96.8068C53.214 96.8068 57.2916 95.9252 60.7077 94.0583L58.7894 90.5483C56.0976 92.0194 52.7178 92.8068 48.5625 92.8068V96.8068ZM60.7077 94.0583C64.0512 92.231 66.6448 89.7792 68.4098 86.6904L64.9368 84.7059C63.5768 87.0859 61.5539 89.0374 58.7894 90.5483L60.7077 94.0583ZM68.4 86.7073C70.1787 83.6638 71.0703 80.3498 71.0703 76.8026H67.0703C67.0703 79.6473 66.3639 82.2638 64.9466 84.689L68.4 86.7073ZM71.0703 76.8026C71.0703 71.5979 69.0384 67.1447 65.0897 63.5513L62.3975 66.5098C65.5511 69.3795 67.0703 72.7743 67.0703 76.8026H71.0703ZM65.1051 63.5655C61.0994 59.8431 55.4807 58.13 48.5625 58.13V62.13C54.8545 62.13 59.3565 63.6839 62.3821 66.4956L65.1051 63.5655ZM48.5625 58.13H27.522V62.13H48.5625V58.13ZM25.522 60.13V94.8068H29.522V60.13H25.522ZM105.904 1.90909V-0.0909119H103.904V1.90909H105.904ZM125.507 1.90909H127.507V-0.0909119H125.507V1.90909ZM125.507 76.2699H123.507V78.2699H125.507V76.2699ZM126.519 76.2699V78.2699H127.569L128.165 77.4055L126.519 76.2699ZM177.815 1.90909V-0.0909119H176.765L176.169 0.77343L177.815 1.90909ZM195.553 1.90909H197.553V-0.0909119H195.553V1.90909ZM195.553 111V113H197.553V111H195.553ZM175.791 111H173.791V113H175.791V111ZM175.791 36.6925H177.791V34.6925H175.791V36.6925ZM174.885 36.6925V34.6925H173.838L173.241 35.5539L174.885 36.6925ZM123.429 111V113H124.477L125.074 112.139L123.429 111ZM105.904 111H103.904V113H105.904V111ZM105.904 3.90909H125.507V-0.0909119H105.904V3.90909ZM123.507 1.90909V76.2699H127.507V1.90909H123.507ZM125.507 78.2699H126.519V74.2699H125.507V78.2699ZM128.165 77.4055L179.461 3.04475L176.169 0.77343L124.873 75.1342L128.165 77.4055ZM177.815 3.90909H195.553V-0.0909119H177.815V3.90909ZM193.553 1.90909V111H197.553V1.90909H193.553ZM195.553 109H175.791V113H195.553V109ZM177.791 111V36.6925H173.791V111H177.791ZM175.791 34.6925H174.885V38.6925H175.791V34.6925ZM173.241 35.5539L121.785 109.861L125.074 112.139L176.53 37.8311L173.241 35.5539ZM123.429 109H105.904V113H123.429V109ZM107.904 111V1.90909H103.904V111H107.904ZM234.718 108.55L233.907 110.378L233.911 110.38L234.718 108.55ZM220.655 97.5767L222.267 96.3924L220.655 97.5767ZM215.169 81.3303V79.3303H213.098L213.17 81.3996L215.169 81.3303ZM235.197 81.3303L237.193 81.21L237.08 79.3303H235.197V81.3303ZM238.127 89.054L236.57 90.3095L236.575 90.3157L236.58 90.3218L238.127 89.054ZM245.211 94.1143L244.453 95.9651L245.211 94.1143ZM265.506 93.9013L266.322 95.7271L266.331 95.7231L266.34 95.7191L265.506 93.9013ZM272.59 88.1484L270.949 87.0063L272.59 88.1484ZM275.094 79.679L273.094 79.6575L273.094 79.6793L273.094 79.7012L275.094 79.679ZM272.537 70.9432L270.891 72.0792L272.537 70.9432ZM264.973 65.0305L264.176 66.8647L264.183 66.8678L264.973 65.0305ZM243.507 62.8999H241.507V64.8999H243.507V62.8999ZM243.507 47.6655V45.6655H241.507V47.6655H243.507ZM263.109 45.6946L262.278 43.8754L262.269 43.8793L263.109 45.6946ZM269.874 40.1548L271.523 41.2869L271.53 41.2754L269.874 40.1548ZM272.271 31.7919L270.271 31.7689L270.271 31.7916L270.271 31.8144L272.271 31.7919ZM270.193 23.7486L268.478 24.7776L268.488 24.7932L268.497 24.8086L270.193 23.7486ZM264.281 18.3686L263.376 20.1524L263.386 20.1575L264.281 18.3686ZM246.117 18.2621L246.899 20.1027L246.117 18.2621ZM239.245 23.429L240.814 24.6691L240.819 24.663L240.824 24.6569L239.245 23.429ZM236.475 31.3125V33.3125H238.407L238.474 31.3822L236.475 31.3125ZM217.459 31.3125L215.46 31.266L215.412 33.3125H217.459V31.3125ZM222.732 15.2259L221.119 14.0437L221.118 14.0458L222.732 15.2259ZM236.369 4.35938L237.199 6.17896L237.208 6.17463L236.369 4.35938ZM274.455 4.51917L273.546 6.30089L273.553 6.30449L273.56 6.30803L274.455 4.51917ZM286.972 15.4389L285.291 16.5211V16.5211L286.972 15.4389ZM291.394 30.62H289.394L289.394 30.6316L291.394 30.62ZM285.96 46.0675L284.459 44.7459L284.453 44.7532L285.96 46.0675ZM271.685 54.2173L271.261 52.2628L269.685 52.6046V54.2173H271.685ZM271.685 55.0696H269.685V56.811L271.41 57.0506L271.685 55.0696ZM289.316 63.5923L287.818 64.9175L287.824 64.9236L287.829 64.9296L289.316 63.5923ZM295.442 80.691L293.442 80.6806V80.691H295.442ZM290.222 97.0973L288.599 95.9281L288.598 95.9303L290.222 97.0973ZM275.946 108.39L275.125 106.566L275.121 106.568L275.946 108.39ZM255.172 110.491C247.731 110.491 241.195 109.217 235.524 106.719L233.911 110.38C240.172 113.138 247.272 114.491 255.172 114.491V110.491ZM235.528 106.721C229.879 104.218 225.482 100.768 222.267 96.3924L219.043 98.761C222.717 103.761 227.696 107.626 233.907 110.378L235.528 106.721ZM222.267 96.3924C219.074 92.048 217.367 87.0263 217.167 81.2609L213.17 81.3996C213.396 87.9211 215.347 93.7304 219.043 98.761L222.267 96.3924ZM215.169 83.3303H235.197V79.3303H215.169V83.3303ZM233.201 81.4505C233.402 84.7934 234.521 87.7694 236.57 90.3095L239.683 87.7985C238.181 85.9351 237.347 83.7619 237.193 81.21L233.201 81.4505ZM236.58 90.3218C238.593 92.7782 241.241 94.6493 244.453 95.9651L245.969 92.2636C243.286 91.1646 241.211 89.6622 239.673 87.7861L236.58 90.3218ZM244.453 95.9651C247.674 97.2846 251.239 97.9254 255.119 97.9254V93.9254C251.683 93.9254 248.643 93.3589 245.969 92.2636L244.453 95.9651ZM255.119 97.9254C259.256 97.9254 263.005 97.2103 266.322 95.7271L264.69 92.0754C261.97 93.2911 258.794 93.9254 255.119 93.9254V97.9254ZM266.34 95.7191C269.646 94.2023 272.301 92.0663 274.232 89.2906L270.949 87.0063C269.47 89.1311 267.403 90.8303 264.672 92.0835L266.34 95.7191ZM274.232 89.2906C276.191 86.4741 277.134 83.2376 277.094 79.6568L273.094 79.7012C273.125 82.5124 272.398 84.9222 270.949 87.0063L274.232 89.2906ZM277.094 79.7005C277.133 76.0188 276.176 72.6955 274.183 69.8072L270.891 72.0792C272.378 74.2335 273.125 76.734 273.094 79.6575L277.094 79.7005ZM274.183 69.8072C272.195 66.9259 269.351 64.7362 265.763 63.1933L264.183 66.8678C267.201 68.1658 269.399 69.9178 270.891 72.0792L274.183 69.8072ZM265.771 63.1964C262.189 61.6393 257.961 60.8999 253.148 60.8999V64.8999C257.568 64.8999 261.223 65.5808 264.176 66.8647L265.771 63.1964ZM253.148 60.8999H243.507V64.8999H253.148V60.8999ZM245.507 62.8999V47.6655H241.507V62.8999H245.507ZM243.507 49.6655H253.148V45.6655H243.507V49.6655ZM253.148 49.6655C257.177 49.6655 260.794 48.9687 263.948 47.5098L262.269 43.8793C259.742 45.0484 256.719 45.6655 253.148 45.6655V49.6655ZM263.94 47.5138C267.114 46.0641 269.664 43.9933 271.523 41.2868L268.225 39.0228C266.816 41.0749 264.857 42.6973 262.278 43.8754L263.94 47.5138ZM271.53 41.2754C273.411 38.4949 274.31 35.3011 274.271 31.7694L270.271 31.8144C270.302 34.6038 269.603 36.9853 268.217 39.0342L271.53 41.2754ZM274.271 31.8149C274.31 28.4026 273.542 25.3331 271.889 22.6886L268.497 24.8086C269.685 26.7095 270.303 29.0022 270.271 31.7689L274.271 31.8149ZM271.908 22.7196C270.315 20.0647 268.05 18.0172 265.175 16.5798L263.386 20.1575C265.625 21.2768 267.301 22.816 268.478 24.7776L271.908 22.7196ZM265.185 16.5848C262.332 15.1379 259.044 14.451 255.385 14.451V18.451C258.544 18.451 261.187 19.0425 263.376 20.1524L265.185 16.5848ZM255.385 14.451C251.8 14.451 248.442 15.1006 245.334 16.4214L246.899 20.1027C249.473 19.0088 252.294 18.451 255.385 18.451V14.451ZM245.334 16.4214C242.209 17.7498 239.634 19.6716 237.667 22.2011L240.824 24.6569C242.337 22.7119 244.343 21.1892 246.899 20.1027L245.334 16.4214ZM237.676 22.1889C235.648 24.755 234.597 27.8028 234.477 31.2428L238.474 31.3822C238.567 28.7142 239.362 26.5063 240.814 24.6691L237.676 22.1889ZM236.475 29.3125H217.459V33.3125H236.475V29.3125ZM219.458 31.359C219.592 25.6298 221.231 20.6696 224.347 16.4059L221.118 14.0458C217.486 19.0151 215.61 24.7793 215.46 31.266L219.458 31.359ZM224.346 16.408C227.536 12.0546 231.802 8.64137 237.199 6.17894L235.539 2.53981C229.572 5.26203 224.747 9.09314 221.119 14.0437L224.346 16.408ZM237.208 6.17463C242.595 3.6833 248.677 2.41761 255.492 2.41761V-1.58239C248.172 -1.58239 241.506 -0.220234 235.529 2.54412L237.208 6.17463ZM255.492 2.41761C262.521 2.41761 268.518 3.73702 273.546 6.30089L275.363 2.73745C269.667 -0.167423 263.022 -1.58239 255.492 -1.58239V2.41761ZM273.56 6.30803C278.672 8.8641 282.558 12.2739 285.291 16.5211L288.654 14.3567C285.492 9.44199 281.032 5.57197 275.349 2.73032L273.56 6.30803ZM285.291 16.5211C288.027 20.7736 289.394 25.4571 289.394 30.62H293.394C293.394 24.7034 291.813 19.2662 288.654 14.3567L285.291 16.5211ZM289.394 30.6316C289.427 36.3426 287.756 41.0006 284.459 44.7459L287.462 47.389C291.48 42.8247 293.432 37.1844 293.394 30.6085L289.394 30.6316ZM284.453 44.7532C281.141 48.5526 276.777 51.0665 271.261 52.2628L272.109 56.1719C278.382 54.8113 283.536 51.892 287.468 47.3817L284.453 44.7532ZM269.685 54.2173V55.0696H273.685V54.2173H269.685ZM271.41 57.0506C278.732 58.0676 284.125 60.7429 287.818 64.9175L290.814 62.2672C286.34 57.2088 279.978 54.2023 271.96 53.0886L271.41 57.0506ZM287.829 64.9296C291.579 69.1002 293.475 74.3024 293.442 80.6806L297.442 80.7015C297.48 73.4433 295.292 67.2464 290.803 62.255L287.829 64.9296ZM293.442 80.691C293.442 86.391 291.827 91.4484 288.599 95.9281L291.844 98.2665C295.577 93.0871 297.442 87.207 297.442 80.691H293.442ZM288.598 95.9303C285.383 100.403 280.919 103.957 275.125 106.566L276.767 110.214C283.119 107.354 288.171 103.379 291.846 98.2643L288.598 95.9303ZM275.121 106.568C269.386 109.166 262.75 110.491 255.172 110.491V114.491C263.219 114.491 270.433 113.083 276.771 110.212L275.121 106.568ZM314.791 111H312.791V113H314.791V111ZM314.791 1.90909V-0.0909119H312.791V1.90909H314.791ZM334.553 1.90909H336.553V-0.0909119H334.553V1.90909ZM334.553 48.0916H332.553V50.0916H334.553V48.0916ZM385.104 48.0916V50.0916H387.104V48.0916H385.104ZM385.104 1.90909V-0.0909119H383.104V1.90909H385.104ZM404.919 1.90909H406.919V-0.0909119H404.919V1.90909ZM404.919 111V113H406.919V111H404.919ZM385.104 111H383.104V113H385.104V111ZM385.104 64.6577H387.104V62.6577H385.104V64.6577ZM334.553 64.6577V62.6577H332.553V64.6577H334.553ZM334.553 111V113H336.553V111H334.553ZM316.791 111V1.90909H312.791V111H316.791ZM314.791 3.90909H334.553V-0.0909119H314.791V3.90909ZM332.553 1.90909V48.0916H336.553V1.90909H332.553ZM334.553 50.0916H385.104V46.0916H334.553V50.0916ZM387.104 48.0916V1.90909H383.104V48.0916H387.104ZM385.104 3.90909H404.919V-0.0909119H385.104V3.90909ZM402.919 1.90909V111H406.919V1.90909H402.919ZM404.919 109H385.104V113H404.919V109ZM387.104 111V64.6577H383.104V111H387.104ZM385.104 62.6577H334.553V66.6577H385.104V62.6577ZM332.553 64.6577V111H336.553V64.6577H332.553ZM334.553 109H314.791V113H334.553V109ZM426.412 111H424.412V113H426.412V111ZM426.412 1.90909V-0.0909119H424.412V1.90909H426.412ZM497.364 1.90909H499.364V-0.0909119H497.364V1.90909ZM497.364 18.4751V20.4751H499.364V18.4751H497.364ZM446.174 18.4751V16.4751H444.174V18.4751H446.174ZM446.174 48.0916H444.174V50.0916H446.174V48.0916ZM493.689 48.0916H495.689V46.0916H493.689V48.0916ZM493.689 64.6577V66.6577H495.689V64.6577H493.689ZM446.174 64.6577V62.6577H444.174V64.6577H446.174ZM446.174 94.4339H444.174V96.4339H446.174V94.4339ZM497.79 94.4339H499.79V92.4339H497.79V94.4339ZM497.79 111V113H499.79V111H497.79ZM428.412 111V1.90909H424.412V111H428.412ZM426.412 3.90909H497.364V-0.0909119H426.412V3.90909ZM495.364 1.90909V18.4751H499.364V1.90909H495.364ZM497.364 16.4751H446.174V20.4751H497.364V16.4751ZM444.174 18.4751V48.0916H448.174V18.4751H444.174ZM446.174 50.0916H493.689V46.0916H446.174V50.0916ZM491.689 48.0916V64.6577H495.689V48.0916H491.689ZM493.689 62.6577H446.174V66.6577H493.689V62.6577ZM444.174 64.6577V94.4339H448.174V64.6577H444.174ZM446.174 96.4339H497.79V92.4339H446.174V96.4339ZM495.79 94.4339V111H499.79V94.4339H495.79ZM497.79 109H426.412V113H497.79V109ZM610.903 38.7166V40.7166H613.19L612.885 38.45L610.903 38.7166ZM590.981 38.7166L589.01 39.0593L589.299 40.7166H590.981V38.7166ZM587.838 30.0341L586.121 31.0596L586.127 31.0702L587.838 30.0341ZM582.138 23.5355L583.37 21.9595L582.138 23.5355ZM574.362 19.5405L573.75 21.4448L573.764 21.4493L573.778 21.4535L574.362 19.5405ZM549.273 22.63L550.355 24.3119L550.364 24.306L549.273 22.63ZM538.513 35.6271L540.332 36.4573L540.334 36.453L538.513 35.6271ZM538.513 77.5483L536.691 78.3742L536.694 78.381L536.698 78.3878L538.513 77.5483ZM549.273 90.4389L548.194 92.123L548.202 92.1279L548.209 92.1327L549.273 90.4389ZM574.148 93.4751L574.723 95.3908L574.731 95.3885L574.738 95.3862L574.148 93.4751ZM581.872 89.5866L580.684 87.9778L580.678 87.9822L580.672 87.9866L581.872 89.5866ZM587.678 83.3011L585.996 82.2196L585.99 82.2282L585.985 82.2368L587.678 83.3011ZM590.981 74.7784L590.992 72.7784L589.325 72.7695L589.016 74.4072L590.981 74.7784ZM610.903 74.8849L612.882 75.1697L613.209 72.8972L610.913 72.885L610.903 74.8849ZM606.055 89.4801L604.301 88.5205L604.295 88.5311L606.055 89.4801ZM596.414 101.518L597.723 103.03L597.731 103.024L596.414 101.518ZM582.458 109.615L583.136 111.497L583.147 111.493L582.458 109.615ZM539.045 105.833L540.061 104.11L539.045 105.833ZM521.254 86.6037L519.478 87.5221L521.254 86.6037ZM521.308 26.3054L523.079 27.2328L523.081 27.2298L521.308 26.3054ZM539.152 7.07599L538.136 5.35316L539.152 7.07599ZM581.659 2.97443L582.28 1.07322L581.659 2.97443ZM595.615 10.4851L594.357 12.0402L594.366 12.0468L595.615 10.4851ZM605.683 22.5234L603.932 23.4903L603.936 23.4981L603.94 23.5058L605.683 22.5234ZM610.903 36.7166H590.981V40.7166H610.903V36.7166ZM592.951 38.3739C592.346 34.8921 591.22 31.7572 589.549 28.998L586.127 31.0702C587.51 33.3536 588.48 36.007 589.01 39.0593L592.951 38.3739ZM589.555 29.0086C587.906 26.2469 585.843 23.892 583.37 21.9595L580.907 25.1116C582.979 26.7302 584.716 28.7076 586.121 31.0596L589.555 29.0086ZM583.37 21.9595C580.893 20.0245 578.078 18.5828 574.945 17.6274L573.778 21.4535C576.469 22.2737 578.839 23.4954 580.907 25.1116L583.37 21.9595ZM574.973 17.6362C571.879 16.6432 568.564 16.1555 565.04 16.1555V20.1555C568.192 20.1555 571.091 20.5912 573.75 21.4448L574.973 17.6362ZM565.04 16.1555C558.756 16.1555 553.115 17.7416 548.181 20.954L550.364 24.306C554.593 21.5524 559.463 20.1555 565.04 20.1555V16.1555ZM548.191 20.948C543.239 24.134 539.418 28.7881 536.691 34.8012L540.334 36.453C542.792 31.0315 546.145 27.0208 550.355 24.3119L548.191 20.948ZM536.693 34.797C533.951 40.8075 532.624 48.0507 532.624 56.4545H536.624C536.624 48.4521 537.89 41.8104 540.332 36.4573L536.693 34.797ZM532.624 56.4545C532.624 64.9954 533.949 72.3269 536.691 78.3742L540.334 76.7224C537.892 71.335 536.624 64.6041 536.624 56.4545H532.624ZM536.698 78.3878C539.459 84.3592 543.279 88.9743 548.194 92.123L550.352 88.7549C546.176 86.0796 542.822 82.101 540.328 76.7087L536.698 78.3878ZM548.209 92.1327C553.137 95.2271 558.75 96.7536 564.987 96.7536V92.7535C559.433 92.7535 554.57 91.4036 550.336 88.7451L548.209 92.1327ZM564.987 96.7536C568.429 96.7536 571.678 96.3044 574.723 95.3908L573.574 91.5595C570.937 92.3505 568.078 92.7535 564.987 92.7535V96.7536ZM574.738 95.3862C577.821 94.4346 580.605 93.0372 583.072 91.1866L580.672 87.9866C578.594 89.5451 576.228 90.7401 573.559 91.5641L574.738 95.3862ZM583.06 91.1955C585.574 89.3391 587.679 87.0577 589.372 84.3655L585.985 82.2368C584.552 84.5161 582.787 86.4251 580.684 87.9778L583.06 91.1955ZM589.361 84.3827C591.111 81.6597 592.299 78.5729 592.946 75.1496L589.016 74.4072C588.455 77.376 587.441 79.971 585.996 82.2196L589.361 84.3827ZM590.97 76.7784L610.892 76.8849L610.913 72.885L590.992 72.7784L590.97 76.7784ZM608.923 74.6002C608.211 79.5509 606.67 84.1871 604.301 88.5205L607.81 90.4397C610.412 85.6822 612.103 80.5883 612.882 75.1697L608.923 74.6002ZM604.295 88.5311C601.961 92.8612 598.899 96.6868 595.097 100.013L597.731 103.024C601.884 99.3899 605.25 95.1899 607.816 90.4291L604.295 88.5311ZM595.105 100.007C591.324 103.281 586.887 105.861 581.77 107.737L583.147 111.493C588.683 109.463 593.549 106.645 597.723 103.03L595.105 100.007ZM581.781 107.733C576.701 109.562 571.021 110.491 564.72 110.491V114.491C571.416 114.491 577.562 113.503 583.136 111.497L581.781 107.733ZM564.72 110.491C555.454 110.491 547.253 108.35 540.061 104.11L538.03 107.556C545.895 112.194 554.811 114.491 564.72 114.491V110.491ZM540.061 104.11C532.883 99.8778 527.205 93.7592 523.031 85.6853L519.478 87.5221C523.969 96.2095 530.151 102.911 538.03 107.556L540.061 104.11ZM523.031 85.6853C518.877 77.649 516.756 67.9296 516.756 56.4545H512.756C512.756 68.4169 514.967 78.797 519.478 87.5221L523.031 85.6853ZM516.756 56.4545C516.756 44.9448 518.894 35.2295 523.079 27.2328L519.536 25.3779C514.985 34.0716 512.756 44.4558 512.756 56.4545H516.756ZM523.081 27.2298C527.291 19.1528 532.988 13.0322 540.168 8.79881L538.136 5.35316C530.259 9.99758 524.06 16.6966 519.534 25.381L523.081 27.2298ZM540.168 8.79881C547.361 4.55732 555.528 2.41761 564.72 2.41761V-1.58239C554.879 -1.58239 545.999 0.716812 538.136 5.35316L540.168 8.79881ZM564.72 2.41761C570.604 2.41761 576.039 3.24307 581.038 4.87564L582.28 1.07322C576.839 -0.703312 570.981 -1.58239 564.72 -1.58239V2.41761ZM581.038 4.87564C586.038 6.50806 590.472 8.89775 594.357 12.0402L596.873 8.92997C592.591 5.4673 587.721 2.84989 582.28 1.07322L581.038 4.87564ZM594.366 12.0468C598.237 15.1439 601.425 18.9518 603.932 23.4903L607.433 21.5566C604.684 16.5781 601.161 12.3604 596.864 8.92335L594.366 12.0468ZM603.94 23.5058C606.464 27.9807 608.133 33.1299 608.921 38.9832L612.885 38.45C612.039 32.1584 610.228 26.5122 607.425 21.541L603.94 23.5058ZM7.75994 293H5.75994V295H7.75994V293ZM7.75994 183.909V181.909H5.75994V183.909H7.75994ZM27.522 183.909H29.522V181.909H27.522V183.909ZM27.522 230.092H25.522V232.092H27.522V230.092ZM78.0724 230.092V232.092H80.0724V230.092H78.0724ZM78.0724 183.909V181.909H76.0724V183.909H78.0724ZM97.8878 183.909H99.8878V181.909H97.8878V183.909ZM97.8878 293V295H99.8878V293H97.8878ZM78.0724 293H76.0724V295H78.0724V293ZM78.0724 246.658H80.0724V244.658H78.0724V246.658ZM27.522 246.658V244.658H25.522V246.658H27.522ZM27.522 293V295H29.522V293H27.522ZM9.75994 293V183.909H5.75994V293H9.75994ZM7.75994 185.909H27.522V181.909H7.75994V185.909ZM25.522 183.909V230.092H29.522V183.909H25.522ZM27.522 232.092H78.0724V228.092H27.522V232.092ZM80.0724 230.092V183.909H76.0724V230.092H80.0724ZM78.0724 185.909H97.8878V181.909H78.0724V185.909ZM95.8878 183.909V293H99.8878V183.909H95.8878ZM97.8878 291H78.0724V295H97.8878V291ZM80.0724 293V246.658H76.0724V293H80.0724ZM78.0724 244.658H27.522V248.658H78.0724V244.658ZM25.522 246.658V293H29.522V246.658H25.522ZM27.522 291H7.75994V295H27.522V291ZM210.255 268.657L208.484 267.727L208.483 267.73L210.255 268.657ZM192.357 287.833L191.345 286.108L191.341 286.11L192.357 287.833ZM141.061 287.833L140.039 289.552L140.048 289.558L141.061 287.833ZM123.163 268.604L121.389 269.528L121.394 269.537L123.163 268.604ZM123.163 208.305L121.393 207.375L121.391 207.378L123.163 208.305ZM141.061 189.076L140.048 187.351L140.045 187.353L141.061 189.076ZM192.357 189.076L191.341 190.799L191.345 190.801L192.357 189.076ZM210.255 208.305L208.481 209.23L208.486 209.239L210.255 208.305ZM193.103 217.521L191.277 218.337L191.28 218.344L191.283 218.351L193.103 217.521ZM182.449 204.577L181.361 206.255L181.37 206.261L182.449 204.577ZM151.022 204.577L152.101 206.261L152.11 206.255L151.022 204.577ZM140.315 217.521L138.493 216.695L138.491 216.7L140.315 217.521ZM140.315 259.442L138.489 260.258L138.492 260.265L138.495 260.272L140.315 259.442ZM151.022 272.386L149.934 274.064L149.943 274.07L151.022 272.386ZM182.449 272.386L183.528 274.07L183.537 274.064L182.449 272.386ZM193.103 259.442L191.281 258.616L191.279 258.621L193.103 259.442ZM214.86 238.455C214.86 249.962 212.705 259.694 208.484 267.727L212.025 269.587C216.611 260.858 218.86 250.456 218.86 238.455H214.86ZM208.483 267.73C204.275 275.769 198.562 281.873 191.345 286.108L193.369 289.558C201.28 284.916 207.498 278.236 212.027 269.584L208.483 267.73ZM191.341 286.11C184.149 290.351 175.965 292.491 166.735 292.491V296.491C176.611 296.491 185.508 294.193 193.373 289.556L191.341 286.11ZM166.735 292.491C157.506 292.491 149.303 290.351 142.073 286.108L140.048 289.558C147.946 294.193 156.86 296.491 166.735 296.491V292.491ZM142.083 286.114C134.895 281.842 129.177 275.716 124.932 267.67L121.394 269.537C125.956 278.182 132.169 284.875 140.039 289.552L142.083 286.114ZM124.937 267.679C120.749 259.645 118.611 249.927 118.611 238.455H114.611C114.611 250.419 116.841 260.802 121.389 269.528L124.937 267.679ZM118.611 238.455C118.611 226.945 120.749 217.23 124.935 209.233L121.391 207.378C116.841 216.072 114.611 226.456 114.611 238.455H118.611ZM124.933 209.236C129.179 201.156 134.895 195.033 142.077 190.799L140.045 187.353C132.17 191.997 125.954 198.694 121.393 207.375L124.933 209.236ZM142.073 190.801C149.303 186.558 157.506 184.418 166.735 184.418V180.418C156.86 180.418 147.946 182.716 140.048 187.351L142.073 190.801ZM166.735 184.418C175.965 184.418 184.149 186.558 191.341 190.799L193.373 187.353C185.508 182.716 176.611 180.418 166.735 180.418V184.418ZM191.345 190.801C198.559 195.035 204.273 201.155 208.481 209.23L212.028 207.381C207.501 198.694 201.282 191.995 193.369 187.351L191.345 190.801ZM208.486 209.239C212.705 217.234 214.86 226.947 214.86 238.455H218.86C218.86 226.453 216.612 216.067 212.023 207.372L208.486 209.239ZM198.991 238.455C198.991 229.983 197.665 222.703 194.922 216.69L191.283 218.351C193.725 223.702 194.991 230.378 194.991 238.455H198.991ZM194.928 216.704C192.239 210.689 188.452 206.047 183.528 202.893L181.37 206.261C185.538 208.93 188.853 212.917 191.277 218.337L194.928 216.704ZM183.537 202.899C178.637 199.721 173.014 198.156 166.735 198.156V202.156C172.318 202.156 177.17 203.537 181.361 206.255L183.537 202.899ZM166.735 198.156C160.457 198.156 154.834 199.721 149.934 202.899L152.11 206.255C156.301 203.537 161.153 202.156 166.735 202.156V198.156ZM149.943 202.893C145.022 206.045 141.219 210.684 138.493 216.695L142.136 218.346C144.596 212.922 147.93 208.932 152.101 206.261L149.943 202.893ZM138.491 216.7C135.787 222.71 134.48 229.986 134.48 238.455H138.48C138.48 230.375 139.73 223.695 142.139 218.341L138.491 216.7ZM134.48 238.455C134.48 246.924 135.787 254.216 138.489 260.258L142.141 258.625C139.729 253.233 138.48 246.533 138.48 238.455H134.48ZM138.495 260.272C141.221 266.246 145.022 270.879 149.934 274.064L152.11 270.708C147.93 267.997 144.593 264.001 142.135 258.612L138.495 260.272ZM149.943 274.07C154.842 277.208 160.462 278.754 166.735 278.754V274.754C161.148 274.754 156.293 273.387 152.101 270.702L149.943 274.07ZM166.735 278.754C173.009 278.754 178.629 277.208 183.528 274.07L181.37 270.702C177.178 273.387 172.323 274.754 166.735 274.754V278.754ZM183.537 274.064C188.452 270.877 192.236 266.241 194.926 260.262L191.279 258.621C188.855 264.006 185.538 267.999 181.361 270.708L183.537 274.064ZM194.924 260.268C197.665 254.222 198.991 246.927 198.991 238.455H194.991C194.991 246.53 193.725 253.227 191.281 258.616L194.924 260.268ZM235.543 293H233.543V295H235.543V293ZM235.543 183.909V181.909H233.543V183.909H235.543ZM296.96 187.638L296.1 189.443L296.108 189.447L296.115 189.45L296.96 187.638ZM308.732 197.705L307.023 198.745L307.03 198.755L308.732 197.705ZM310.117 223.593L311.873 224.551L311.877 224.542L310.117 223.593ZM303.246 231.21L302.122 229.556L303.246 231.21ZM293.604 235.418L293.137 233.474L291.604 233.842V235.418H293.604ZM293.604 236.484H291.604V238.377L293.494 238.481L293.604 236.484ZM304.737 240.053L303.696 241.76L303.706 241.766L303.716 241.772L304.737 240.053ZM313.526 249.108L311.797 250.114L313.526 249.108ZM312.834 278.511L314.54 279.554L314.544 279.548L312.834 278.511ZM255.305 276.487H253.305V278.487H255.305V276.487ZM292.059 272.386L293.368 273.898L293.369 273.897L292.059 272.386ZM294.457 252.996L292.748 254.036L292.754 254.046L294.457 252.996ZM287.638 246.817L286.718 248.593L286.727 248.598L286.735 248.602L287.638 246.817ZM255.305 244.527V242.527H253.305V244.527H255.305ZM255.305 230.305H253.305V232.305H255.305V230.305ZM284.069 228.44L284.897 230.261L284.907 230.257L284.916 230.252L284.069 228.44ZM290.515 223.06L288.862 221.934L288.859 221.939L290.515 223.06ZM288.437 204.31L287.077 205.777L287.086 205.785L288.437 204.31ZM255.305 200.209V198.209H253.305V200.209H255.305ZM237.543 293V183.909H233.543V293H237.543ZM235.543 185.909H277.305V181.909H235.543V185.909ZM277.305 185.909C284.993 185.909 291.228 187.123 296.1 189.443L297.82 185.832C292.252 183.181 285.383 181.909 277.305 181.909V185.909ZM296.115 189.45C301.072 191.762 304.668 194.873 307.023 198.745L310.441 196.666C307.611 192.015 303.359 188.414 297.805 185.825L296.115 189.45ZM307.03 198.755C309.448 202.676 310.674 207.137 310.674 212.194H314.674C314.674 206.456 313.272 201.257 310.434 196.655L307.03 198.755ZM310.674 212.194C310.674 216.379 309.871 219.836 308.357 222.644L311.877 224.542C313.772 221.029 314.674 216.887 314.674 212.194H310.674ZM308.361 222.635C306.805 225.488 304.729 227.786 302.122 229.556L304.369 232.865C307.515 230.729 310.02 227.948 311.873 224.551L308.361 222.635ZM302.122 229.556C299.455 231.366 296.466 232.675 293.137 233.474L294.071 237.363C297.845 236.457 301.283 234.96 304.369 232.865L302.122 229.556ZM291.604 235.418V236.484H295.604V235.418H291.604ZM293.494 238.481C297.011 238.674 300.405 239.753 303.696 241.76L305.779 238.345C301.967 236.02 297.938 234.719 293.714 234.487L293.494 238.481ZM303.716 241.772C306.986 243.715 309.681 246.477 311.797 250.114L315.255 248.102C312.826 243.927 309.662 240.652 305.759 238.333L303.716 241.772ZM311.797 250.114C313.856 253.653 314.935 258.011 314.935 263.277H318.935C318.935 257.463 317.741 252.376 315.255 248.102L311.797 250.114ZM314.935 263.277C314.935 268.585 313.655 273.299 311.123 277.474L314.544 279.548C317.481 274.704 318.935 269.262 318.935 263.277H314.935ZM311.127 277.468C308.628 281.559 304.832 284.849 299.624 287.302L301.328 290.921C307.128 288.189 311.571 284.413 314.54 279.554L311.127 277.468ZM299.624 287.302C294.466 289.731 287.855 291 279.702 291V295C288.238 295 295.477 293.676 301.328 290.921L299.624 287.302ZM279.702 291H235.543V295H279.702V291ZM255.305 278.487H276.559V274.487H255.305V278.487ZM276.559 278.487C283.898 278.487 289.661 277.105 293.368 273.898L290.751 270.873C288.137 273.135 283.566 274.487 276.559 274.487V278.487ZM293.369 273.897C297.016 270.737 298.854 266.628 298.854 261.732H294.854C294.854 265.501 293.495 268.495 290.75 270.874L293.369 273.897ZM298.854 261.732C298.854 258.154 297.964 254.874 296.159 251.947L292.754 254.046C294.145 256.303 294.854 258.848 294.854 261.732H298.854ZM296.165 251.957C294.359 248.987 291.796 246.68 288.541 245.033L286.735 248.602C289.376 249.938 291.358 251.75 292.748 254.036L296.165 251.957ZM288.558 245.042C285.268 243.337 281.423 242.527 277.091 242.527V246.527C280.928 246.527 284.113 247.244 286.718 248.593L288.558 245.042ZM277.091 242.527H255.305V246.527H277.091V242.527ZM253.305 244.527V276.487H257.305V244.527H253.305ZM255.305 232.305H274.854V228.305H255.305V232.305ZM274.854 232.305C278.51 232.305 281.87 231.637 284.897 230.261L283.242 226.62C280.8 227.729 278.016 228.305 274.854 228.305V232.305ZM284.916 230.252C287.95 228.834 290.389 226.813 292.171 224.181L288.859 221.939C287.515 223.924 285.658 225.49 283.222 226.629L284.916 230.252ZM292.167 224.187C294.02 221.47 294.912 218.296 294.912 214.751H290.912C290.912 217.598 290.206 219.963 288.862 221.934L292.167 224.187ZM294.912 214.751C294.912 209.992 293.205 205.968 289.789 202.836L287.086 205.785C289.635 208.122 290.912 211.057 290.912 214.751H294.912ZM289.798 202.844C286.343 199.64 281.385 198.209 275.28 198.209V202.209C280.824 202.209 284.636 203.512 287.077 205.777L289.798 202.844ZM275.28 198.209H255.305V202.209H275.28V198.209ZM253.305 200.209V230.305H257.305V200.209H253.305ZM425.001 268.657L423.23 267.727L423.229 267.73L425.001 268.657ZM407.103 287.833L406.091 286.108L406.087 286.11L407.103 287.833ZM355.807 287.833L354.785 289.552L354.795 289.558L355.807 287.833ZM337.909 268.604L336.135 269.528L336.14 269.537L337.909 268.604ZM337.909 208.305L336.139 207.375L336.137 207.378L337.909 208.305ZM355.807 189.076L354.795 187.351L354.791 187.353L355.807 189.076ZM407.103 189.076L406.087 190.799L406.091 190.801L407.103 189.076ZM425.001 208.305L423.227 209.23L423.232 209.239L425.001 208.305ZM407.849 217.521L406.023 218.337L406.026 218.344L406.029 218.351L407.849 217.521ZM397.195 204.577L396.107 206.255L396.116 206.261L397.195 204.577ZM365.768 204.577L366.847 206.261L366.856 206.255L365.768 204.577ZM355.061 217.521L353.24 216.695L353.237 216.7L355.061 217.521ZM355.061 259.442L353.235 260.258L353.238 260.265L353.242 260.272L355.061 259.442ZM365.768 272.386L364.68 274.064L364.689 274.07L365.768 272.386ZM397.195 272.386L398.274 274.07L398.283 274.064L397.195 272.386ZM407.849 259.442L406.027 258.616L406.025 258.621L407.849 259.442ZM429.606 238.455C429.606 249.962 427.451 259.694 423.23 267.727L426.771 269.587C431.357 260.858 433.606 250.456 433.606 238.455H429.606ZM423.229 267.73C419.021 275.769 413.308 281.873 406.091 286.108L408.115 289.558C416.026 284.916 422.245 278.236 426.773 269.584L423.229 267.73ZM406.087 286.11C398.895 290.351 390.711 292.491 381.482 292.491V296.491C391.357 296.491 400.254 294.193 408.119 289.556L406.087 286.11ZM381.482 292.491C372.252 292.491 364.049 290.351 356.819 286.108L354.795 289.558C362.692 294.193 371.606 296.491 381.482 296.491V292.491ZM356.829 286.114C349.641 281.842 343.923 275.716 339.678 267.67L336.14 269.537C340.702 278.182 346.915 284.875 354.785 289.552L356.829 286.114ZM339.683 267.679C335.495 259.645 333.357 249.927 333.357 238.455H329.357C329.357 250.419 331.587 260.802 336.136 269.528L339.683 267.679ZM333.357 238.455C333.357 226.945 335.496 217.23 339.681 209.233L336.137 207.378C331.587 216.072 329.357 226.456 329.357 238.455H333.357ZM339.68 209.236C343.925 201.156 349.641 195.033 356.823 190.799L354.791 187.353C346.916 191.997 340.7 198.694 336.139 207.375L339.68 209.236ZM356.819 190.801C364.049 186.558 372.252 184.418 381.482 184.418V180.418C371.606 180.418 362.692 182.716 354.795 187.351L356.819 190.801ZM381.482 184.418C390.711 184.418 398.895 186.558 406.087 190.799L408.119 187.353C400.254 182.716 391.357 180.418 381.482 180.418V184.418ZM406.091 190.801C413.306 195.035 419.019 201.155 423.227 209.23L426.774 207.381C422.247 198.694 416.028 191.995 408.115 187.351L406.091 190.801ZM423.232 209.239C427.451 217.234 429.606 226.947 429.606 238.455H433.606C433.606 226.453 431.358 216.067 426.77 207.372L423.232 209.239ZM413.737 238.455C413.737 229.983 412.411 222.703 409.668 216.69L406.029 218.351C408.471 223.702 409.737 230.378 409.737 238.455H413.737ZM409.674 216.704C406.985 210.689 403.198 206.047 398.274 202.893L396.116 206.261C400.284 208.93 403.599 212.917 406.023 218.337L409.674 216.704ZM398.283 202.899C393.383 199.721 387.76 198.156 381.482 198.156V202.156C387.064 202.156 391.916 203.537 396.107 206.255L398.283 202.899ZM381.482 198.156C375.203 198.156 369.58 199.721 364.68 202.899L366.856 206.255C371.047 203.537 375.899 202.156 381.482 202.156V198.156ZM364.689 202.893C359.768 206.045 355.965 210.684 353.24 216.695L356.883 218.346C359.342 212.922 362.677 208.932 366.847 206.261L364.689 202.893ZM353.237 216.7C350.533 222.71 349.226 229.986 349.226 238.455H353.226C353.226 230.375 354.476 223.695 356.885 218.341L353.237 216.7ZM349.226 238.455C349.226 246.924 350.533 254.216 353.235 260.258L356.887 258.625C354.475 253.233 353.226 246.533 353.226 238.455H349.226ZM353.242 260.272C355.967 266.246 359.768 270.879 364.68 274.064L366.856 270.708C362.677 267.997 359.34 264.001 356.881 258.612L353.242 260.272ZM364.689 274.07C369.588 277.208 375.208 278.754 381.482 278.754V274.754C375.894 274.754 371.039 273.387 366.847 270.702L364.689 274.07ZM381.482 278.754C387.755 278.754 393.375 277.208 398.274 274.07L396.116 270.702C391.924 273.387 387.069 274.754 381.482 274.754V278.754ZM398.283 274.064C403.198 270.877 406.982 266.241 409.673 260.262L406.025 258.621C403.602 264.006 400.284 267.999 396.107 270.708L398.283 274.064ZM409.67 260.268C412.411 254.222 413.737 246.927 413.737 238.455H409.737C409.737 246.53 408.471 253.227 406.027 258.616L409.67 260.268ZM520.442 183.909H522.442V181.909H520.442V183.909ZM520.442 200.475V202.475H522.442V200.475H520.442ZM470.051 200.475V198.475H468.051V200.475H470.051ZM470.051 293V295H472.051V293H470.051ZM450.289 293H448.289V295H450.289V293ZM450.289 183.909V181.909H448.289V183.909H450.289ZM518.442 183.909V200.475H522.442V183.909H518.442ZM520.442 198.475H470.051V202.475H520.442V198.475ZM468.051 200.475V293H472.051V200.475H468.051ZM470.051 291H450.289V295H470.051V291ZM452.289 293V183.909H448.289V293H452.289ZM450.289 185.909H520.442V181.909H450.289V185.909ZM623.194 268.657L621.424 267.727L621.422 267.73L623.194 268.657ZM605.296 287.833L604.284 286.108L604.281 286.11L605.296 287.833ZM554 287.833L552.978 289.552L552.988 289.558L554 287.833ZM536.102 268.604L534.329 269.528L534.334 269.537L536.102 268.604ZM536.102 208.305L534.332 207.375L534.331 207.378L536.102 208.305ZM554 189.076L552.988 187.351L552.984 187.353L554 189.076ZM605.296 189.076L604.281 190.799L604.284 190.801L605.296 189.076ZM623.194 208.305L621.42 209.23L621.425 209.239L623.194 208.305ZM606.042 217.521L604.216 218.337L604.219 218.344L604.223 218.351L606.042 217.521ZM595.389 204.577L594.301 206.255L594.31 206.261L595.389 204.577ZM563.961 204.577L565.04 206.261L565.049 206.255L563.961 204.577ZM553.254 217.521L551.433 216.695L551.431 216.7L553.254 217.521ZM553.254 259.442L551.429 260.258L551.432 260.265L551.435 260.272L553.254 259.442ZM563.961 272.386L562.873 274.064L562.882 274.07L563.961 272.386ZM595.389 272.386L596.468 274.07L596.477 274.064L595.389 272.386ZM606.042 259.442L604.221 258.616L604.218 258.621L606.042 259.442ZM627.799 238.455C627.799 249.962 625.644 259.694 621.424 267.727L624.965 269.587C629.551 260.858 631.799 250.456 631.799 238.455H627.799ZM621.422 267.73C617.214 275.769 611.501 281.873 604.284 286.108L606.309 289.558C614.219 284.916 620.438 278.236 624.966 269.584L621.422 267.73ZM604.281 286.11C597.088 290.351 588.904 292.491 579.675 292.491V296.491C589.55 296.491 598.448 294.193 606.312 289.556L604.281 286.11ZM579.675 292.491C570.445 292.491 562.242 290.351 555.012 286.108L552.988 289.558C560.886 294.193 569.799 296.491 579.675 296.491V292.491ZM555.022 286.114C547.835 281.842 542.117 275.716 537.871 267.67L534.334 269.537C538.895 278.182 545.109 284.875 552.978 289.552L555.022 286.114ZM537.876 267.679C533.688 259.645 531.551 249.927 531.551 238.455H527.551C527.551 250.419 529.781 260.802 534.329 269.528L537.876 267.679ZM531.551 238.455C531.551 226.945 533.689 217.23 537.874 209.233L534.331 207.378C529.78 216.072 527.551 226.456 527.551 238.455H531.551ZM537.873 209.236C542.118 201.156 547.835 195.033 555.016 190.799L552.984 187.353C545.109 191.997 538.893 198.694 534.332 207.375L537.873 209.236ZM555.012 190.801C562.242 186.558 570.445 184.418 579.675 184.418V180.418C569.799 180.418 560.886 182.716 552.988 187.351L555.012 190.801ZM579.675 184.418C588.904 184.418 597.088 186.558 604.281 190.799L606.312 187.353C598.448 182.716 589.55 180.418 579.675 180.418V184.418ZM604.284 190.801C611.499 195.035 617.212 201.155 621.42 209.23L624.968 207.381C620.44 198.694 614.222 191.995 606.309 187.351L604.284 190.801ZM621.425 209.239C625.644 217.234 627.799 226.947 627.799 238.455H631.799C631.799 226.453 629.551 216.067 624.963 207.372L621.425 209.239ZM611.931 238.455C611.931 229.983 610.605 222.703 607.862 216.69L604.223 218.351C606.664 223.702 607.931 230.378 607.931 238.455H611.931ZM607.868 216.704C605.178 210.689 601.391 206.047 596.468 202.893L594.31 206.261C598.477 208.93 601.793 212.917 604.216 218.337L607.868 216.704ZM596.477 202.899C591.577 199.721 585.953 198.156 579.675 198.156V202.156C585.257 202.156 590.11 203.537 594.301 206.255L596.477 202.899ZM579.675 198.156C573.396 198.156 567.773 199.721 562.873 202.899L565.049 206.255C569.24 203.537 574.093 202.156 579.675 202.156V198.156ZM562.882 202.893C557.961 206.045 554.158 210.684 551.433 216.695L555.076 218.346C557.535 212.922 560.87 208.932 565.04 206.261L562.882 202.893ZM551.431 216.7C548.726 222.71 547.419 229.986 547.419 238.455H551.419C551.419 230.375 552.669 223.695 555.078 218.341L551.431 216.7ZM547.419 238.455C547.419 246.924 548.726 254.216 551.429 260.258L555.08 258.625C552.669 253.233 551.419 246.533 551.419 238.455H547.419ZM551.435 260.272C554.161 266.246 557.961 270.879 562.873 274.064L565.049 270.708C560.87 267.997 557.533 264.001 555.074 258.612L551.435 260.272ZM562.882 274.07C567.781 277.208 573.401 278.754 579.675 278.754V274.754C574.088 274.754 569.232 273.387 565.04 270.702L562.882 274.07ZM579.675 278.754C585.949 278.754 591.569 277.208 596.468 274.07L594.31 270.702C590.118 273.387 585.262 274.754 579.675 274.754V278.754ZM596.477 274.064C601.391 270.877 605.176 266.241 607.866 260.262L604.218 258.621C601.795 264.006 598.477 267.999 594.301 270.708L596.477 274.064ZM607.864 260.268C610.605 254.222 611.931 246.927 611.931 238.455H607.931C607.931 246.53 606.664 253.227 604.221 258.616L607.864 260.268ZM17.5078 476.491H15.5078V478.491H17.5078V476.491ZM17.5078 459.872V457.872H15.5078V459.872H17.5078ZM30.6648 458.647L29.8426 456.824L30.6648 458.647ZM35.0327 455.131L33.4282 453.937L33.4192 453.95L33.4103 453.962L35.0327 455.131ZM37.8558 449.805L35.9933 449.076L35.986 449.095L35.9791 449.113L37.8558 449.805ZM39.294 446.129L41.1565 446.858L41.4756 446.043L41.0928 445.255L39.294 446.129ZM0.302557 365.909V363.909H-2.89329L-1.49622 366.783L0.302557 365.909ZM20.9702 365.909L22.7835 365.065L22.2454 363.909H20.9702V365.909ZM48.1364 424.29L46.3231 425.134L48.2696 429.317L49.9918 425.036L48.1364 424.29ZM71.6271 365.909V363.909H70.276L69.7717 365.163L71.6271 365.909ZM91.9751 365.909L93.8173 366.688L94.992 363.909H91.9751V365.909ZM54.3686 454.865L56.1899 455.691L56.2006 455.668L56.2108 455.644L54.3686 454.865ZM48.3494 465.572L49.9913 466.714L49.997 466.706L48.3494 465.572ZM39.4538 473.509L40.4164 475.262L40.4222 475.258L39.4538 473.509ZM19.5078 476.491V459.872H15.5078V476.491H19.5078ZM17.5078 461.872H23.7401V457.872H17.5078V461.872ZM23.7401 461.872C26.7203 461.872 29.334 461.441 31.487 460.47L29.8426 456.824C28.3734 457.486 26.3706 457.872 23.7401 457.872V461.872ZM31.487 460.47C33.599 459.518 35.3378 458.128 36.655 456.301L33.4103 453.962C32.5258 455.189 31.3527 456.143 29.8426 456.824L31.487 460.47ZM36.6371 456.325C37.9019 454.626 38.9292 452.676 39.7325 450.496L35.9791 449.113C35.2909 450.981 34.4362 452.583 33.4282 453.937L36.6371 456.325ZM39.7183 450.533L41.1565 446.858L37.4316 445.4L35.9933 449.076L39.7183 450.533ZM41.0928 445.255L2.10133 365.035L-1.49622 366.783L37.4953 447.004L41.0928 445.255ZM0.302557 367.909H20.9702V363.909H0.302557V367.909ZM19.1569 366.753L46.3231 425.134L49.9497 423.446L22.7835 365.065L19.1569 366.753ZM49.9918 425.036L73.4826 366.656L69.7717 365.163L46.2809 423.543L49.9918 425.036ZM71.6271 367.909H91.9751V363.909H71.6271V367.909ZM90.133 365.13L52.5265 454.086L56.2108 455.644L93.8173 366.688L90.133 365.13ZM52.5473 454.039C50.8535 457.772 48.9045 461.237 46.7019 464.438L49.997 466.706C52.3399 463.301 54.4036 459.629 56.1899 455.691L52.5473 454.039ZM46.7076 464.43C44.6187 467.432 41.8889 469.875 38.4854 471.759L40.4222 475.258C44.3341 473.094 47.5347 470.245 49.9912 466.714L46.7076 464.43ZM38.4913 471.755C35.2603 473.529 30.9022 474.491 25.2848 474.491V478.491C31.3151 478.491 36.4031 477.465 40.4164 475.262L38.4913 471.755ZM25.2848 474.491H17.5078V478.491H25.2848V474.491ZM106.051 475H104.051V477H106.051V475ZM106.051 365.909V363.909H104.051V365.909H106.051ZM168.054 370.597L167.09 372.349L167.095 372.352L168.054 370.597ZM180.998 383.487L179.232 384.427L179.236 384.434L179.24 384.441L180.998 383.487ZM180.998 420.668L182.756 421.621L180.998 420.668ZM167.947 433.505L168.894 435.267L168.902 435.262L167.947 433.505ZM119.581 438.139H117.581V440.139H119.581V438.139ZM119.581 421.893V419.893H117.581V421.893H119.581ZM156.069 419.336L157.026 421.092L156.069 419.336ZM162.993 412.305L161.213 411.393L161.209 411.402L161.205 411.41L162.993 412.305ZM162.993 391.797L161.209 392.7L161.213 392.708L161.218 392.717L162.993 391.797ZM156.015 384.925L155.073 386.69L155.085 386.696L155.097 386.702L156.015 384.925ZM125.813 382.422V380.422H123.813V382.422H125.813ZM125.813 475V477H127.813V475H125.813ZM108.051 475V365.909H104.051V475H108.051ZM106.051 367.909H146.96V363.909H106.051V367.909ZM146.96 367.909C155.1 367.909 161.777 369.427 167.09 372.349L169.018 368.844C162.967 365.516 155.582 363.909 146.96 363.909V367.909ZM167.095 372.352C172.488 375.3 176.514 379.321 179.232 384.427L182.763 382.547C179.658 376.716 175.054 372.144 169.013 368.842L167.095 372.352ZM179.24 384.441C182.01 389.548 183.419 395.392 183.419 402.024H187.419C187.419 394.807 185.88 388.293 182.756 382.534L179.24 384.441ZM183.419 402.024C183.419 408.731 182.008 414.61 179.24 419.714L182.756 421.621C185.882 415.859 187.419 409.308 187.419 402.024H183.419ZM179.24 419.714C176.488 424.787 172.427 428.796 166.993 431.748L168.902 435.262C174.974 431.964 179.613 427.415 182.756 421.621L179.24 419.714ZM167.001 431.743C161.611 434.638 154.872 436.139 146.694 436.139V440.139C155.347 440.139 162.778 438.551 168.894 435.267L167.001 431.743ZM146.694 436.139H119.581V440.139H146.694V436.139ZM121.581 438.139V421.893H117.581V438.139H121.581ZM119.581 423.893H144.03V419.893H119.581V423.893ZM144.03 423.893C149.146 423.893 153.518 423.006 157.026 421.092L155.111 417.58C152.37 419.075 148.716 419.893 144.03 419.893V423.893ZM157.026 421.092C160.484 419.206 163.096 416.572 164.782 413.199L161.205 411.41C159.908 414.003 157.903 416.057 155.111 417.58L157.026 421.092ZM164.774 413.216C166.466 409.91 167.284 406.163 167.284 402.024H163.284C163.284 405.627 162.575 408.733 161.213 411.393L164.774 413.216ZM167.284 402.024C167.284 397.886 166.466 394.152 164.769 390.877L161.218 392.717C162.575 395.336 163.284 398.42 163.284 402.024H167.284ZM164.778 390.894C163.082 387.542 160.437 384.96 156.934 383.149L155.097 386.702C157.915 388.158 159.922 390.157 161.209 392.7L164.778 390.894ZM156.958 383.161C153.451 381.289 149.066 380.422 143.924 380.422V384.422C148.653 384.422 152.33 385.224 155.073 386.69L156.958 383.161ZM143.924 380.422H125.813V384.422H143.924V380.422ZM123.813 382.422V475H127.813V382.422H123.813ZM125.813 473H106.051V477H125.813V473ZM293.458 450.657L291.687 449.727L291.686 449.73L293.458 450.657ZM275.56 469.833L274.548 468.108L274.544 468.11L275.56 469.833ZM224.264 469.833L223.242 471.552L223.252 471.558L224.264 469.833ZM206.366 450.604L204.593 451.528L204.597 451.537L206.366 450.604ZM206.366 390.305L204.596 389.375L204.594 389.378L206.366 390.305ZM224.264 371.076L223.252 369.351L223.248 369.353L224.264 371.076ZM275.56 371.076L274.544 372.799L274.548 372.801L275.56 371.076ZM293.458 390.305L291.684 391.23L291.689 391.239L293.458 390.305ZM276.306 399.521L274.48 400.337L274.483 400.344L274.486 400.351L276.306 399.521ZM265.652 386.577L264.564 388.255L264.573 388.261L265.652 386.577ZM234.225 386.577L235.304 388.261L235.313 388.255L234.225 386.577ZM223.518 399.521L221.697 398.695L221.694 398.7L223.518 399.521ZM223.518 441.442L221.692 442.258L221.695 442.265L221.699 442.272L223.518 441.442ZM234.225 454.386L233.137 456.064L233.146 456.07L234.225 454.386ZM265.652 454.386L266.731 456.07L266.74 456.064L265.652 454.386ZM276.306 441.442L274.484 440.616L274.482 440.621L276.306 441.442ZM298.063 420.455C298.063 431.962 295.908 441.694 291.687 449.727L295.228 451.587C299.815 442.858 302.063 432.456 302.063 420.455H298.063ZM291.686 449.73C287.478 457.769 281.765 463.873 274.548 468.108L276.572 471.558C284.483 466.916 290.702 460.236 295.23 451.584L291.686 449.73ZM274.544 468.11C267.352 472.351 259.168 474.491 249.939 474.491V478.491C259.814 478.491 268.711 476.193 276.576 471.556L274.544 468.11ZM249.939 474.491C240.709 474.491 232.506 472.351 225.276 468.108L223.252 471.558C231.15 476.193 240.063 478.491 249.939 478.491V474.491ZM225.286 468.114C218.098 463.842 212.38 457.716 208.135 449.67L204.597 451.537C209.159 460.182 215.372 466.875 223.242 471.552L225.286 468.114ZM208.14 449.679C203.952 441.645 201.814 431.927 201.814 420.455H197.814C197.814 432.419 200.044 442.802 204.593 451.528L208.14 449.679ZM201.814 420.455C201.814 408.945 203.953 399.229 208.138 391.233L204.594 389.378C200.044 398.072 197.814 408.456 197.814 420.455H201.814ZM208.137 391.236C212.382 383.156 218.098 377.033 225.28 372.799L223.248 369.353C215.373 373.997 209.157 380.694 204.596 389.375L208.137 391.236ZM225.276 372.801C232.506 368.558 240.709 366.418 249.939 366.418V362.418C240.063 362.418 231.15 364.716 223.252 369.351L225.276 372.801ZM249.939 366.418C259.168 366.418 267.352 368.558 274.544 372.799L276.576 369.353C268.711 364.716 259.814 362.418 249.939 362.418V366.418ZM274.548 372.801C281.763 377.035 287.476 383.155 291.684 391.23L295.231 389.381C290.704 380.694 284.485 373.995 276.572 369.351L274.548 372.801ZM291.689 391.239C295.908 399.234 298.063 408.947 298.063 420.455H302.063C302.063 408.453 299.815 398.067 295.227 389.372L291.689 391.239ZM282.194 420.455C282.194 411.983 280.869 404.703 278.125 398.69L274.486 400.351C276.928 405.702 278.194 412.378 278.194 420.455H282.194ZM278.132 398.704C275.442 392.689 271.655 388.047 266.731 384.893L264.573 388.261C268.741 390.93 272.056 394.917 274.48 400.337L278.132 398.704ZM266.74 384.899C261.841 381.721 256.217 380.156 249.939 380.156V384.156C255.521 384.156 260.373 385.537 264.564 388.255L266.74 384.899ZM249.939 380.156C243.66 380.156 238.037 381.721 233.137 384.899L235.313 388.255C239.504 385.537 244.356 384.156 249.939 384.156V380.156ZM233.146 384.893C228.225 388.045 224.422 392.684 221.697 398.695L225.34 400.346C227.799 394.922 231.134 390.932 235.304 388.261L233.146 384.893ZM221.694 398.7C218.99 404.71 217.683 411.986 217.683 420.455H221.683C221.683 412.375 222.933 405.695 225.342 400.341L221.694 398.7ZM217.683 420.455C217.683 428.924 218.99 436.216 221.692 442.258L225.344 440.625C222.932 435.233 221.683 428.533 221.683 420.455H217.683ZM221.699 442.272C224.424 448.246 228.225 452.879 233.137 456.064L235.313 452.708C231.134 449.997 227.797 446.001 225.338 440.612L221.699 442.272ZM233.146 456.07C238.045 459.208 243.665 460.754 249.939 460.754V456.754C244.351 456.754 239.496 455.387 235.304 452.702L233.146 456.07ZM249.939 460.754C256.212 460.754 261.832 459.208 266.731 456.07L264.573 452.702C260.381 455.387 255.526 456.754 249.939 456.754V460.754ZM266.74 456.064C271.655 452.877 275.439 448.241 278.13 442.262L274.482 440.621C272.059 446.006 268.741 449.999 264.564 452.708L266.74 456.064ZM278.127 442.268C280.868 436.222 282.194 428.927 282.194 420.455H278.194C278.194 428.53 276.928 435.227 274.484 440.616L278.127 442.268ZM318.746 475H316.746V477H318.746V475ZM318.746 365.909V363.909H316.746V365.909H318.746ZM380.163 369.638L379.303 371.444L379.311 371.447L379.318 371.45L380.163 369.638ZM391.935 379.705L390.227 380.745L390.233 380.755L391.935 379.705ZM393.32 405.593L395.076 406.551L395.08 406.542L393.32 405.593ZM386.449 413.21L385.325 411.556L386.449 413.21ZM376.807 417.418L376.341 415.474L374.807 415.842V417.418H376.807ZM376.807 418.484H374.807V420.377L376.697 420.481L376.807 418.484ZM387.94 422.053L386.899 423.76L386.909 423.766L386.919 423.772L387.94 422.053ZM396.729 431.108L395.001 432.114L396.729 431.108ZM396.037 460.511L397.743 461.554L397.747 461.548L396.037 460.511ZM338.508 458.487H336.508V460.487H338.508V458.487ZM375.263 454.386L376.571 455.898L376.572 455.897L375.263 454.386ZM377.66 434.996L375.951 436.036L375.957 436.046L377.66 434.996ZM370.841 428.817L369.921 430.593L369.93 430.598L369.938 430.602L370.841 428.817ZM338.508 426.527V424.527H336.508V426.527H338.508ZM338.508 412.305H336.508V414.305H338.508V412.305ZM367.273 410.44L368.1 412.261L368.11 412.257L368.12 412.252L367.273 410.44ZM373.718 405.06L372.065 403.934L372.062 403.939L373.718 405.06ZM371.64 386.31L370.28 387.777L370.289 387.785L371.64 386.31ZM338.508 382.209V380.209H336.508V382.209H338.508ZM320.746 475V365.909H316.746V475H320.746ZM318.746 367.909H360.508V363.909H318.746V367.909ZM360.508 367.909C368.196 367.909 374.431 369.123 379.303 371.444L381.023 367.832C375.455 365.181 368.586 363.909 360.508 363.909V367.909ZM379.318 371.45C384.276 373.762 387.871 376.873 390.227 380.745L393.644 378.666C390.815 374.015 386.562 370.414 381.008 367.825L379.318 371.45ZM390.233 380.755C392.651 384.676 393.877 389.137 393.877 394.194H397.877C397.877 388.456 396.475 383.257 393.638 378.655L390.233 380.755ZM393.877 394.194C393.877 398.379 393.074 401.836 391.56 404.644L395.08 406.542C396.975 403.029 397.877 398.887 397.877 394.194H393.877ZM391.564 404.635C390.008 407.488 387.932 409.786 385.325 411.556L387.572 414.865C390.718 412.729 393.223 409.948 395.076 406.551L391.564 404.635ZM385.325 411.556C382.658 413.366 379.669 414.675 376.341 415.474L377.274 419.363C381.048 418.457 384.486 416.96 387.572 414.865L385.325 411.556ZM374.807 417.418V418.484H378.807V417.418H374.807ZM376.697 420.481C380.215 420.674 383.608 421.753 386.899 423.76L388.982 420.345C385.17 418.02 381.142 416.719 376.917 416.487L376.697 420.481ZM386.919 423.772C390.189 425.715 392.884 428.477 395.001 432.114L398.458 430.102C396.029 425.927 392.865 422.652 388.962 420.333L386.919 423.772ZM395.001 432.114C397.06 435.653 398.138 440.011 398.138 445.277H402.138C402.138 439.463 400.944 434.376 398.458 430.102L395.001 432.114ZM398.138 445.277C398.138 450.585 396.858 455.299 394.327 459.474L397.747 461.548C400.684 456.704 402.138 451.262 402.138 445.277H398.138ZM394.33 459.468C391.831 463.559 388.035 466.849 382.827 469.302L384.531 472.921C390.331 470.189 394.774 466.413 397.743 461.554L394.33 459.468ZM382.827 469.302C377.669 471.731 371.058 473 362.905 473V477C371.441 477 378.68 475.676 384.531 472.921L382.827 469.302ZM362.905 473H318.746V477H362.905V473ZM338.508 460.487H359.762V456.487H338.508V460.487ZM359.762 460.487C367.101 460.487 372.864 459.105 376.571 455.898L373.954 452.873C371.34 455.135 366.769 456.487 359.762 456.487V460.487ZM376.572 455.897C380.219 452.737 382.057 448.628 382.057 443.732H378.057C378.057 447.501 376.698 450.495 373.953 452.874L376.572 455.897ZM382.057 443.732C382.057 440.154 381.167 436.874 379.362 433.947L375.957 436.046C377.349 438.303 378.057 440.848 378.057 443.732H382.057ZM379.368 433.957C377.562 430.987 374.999 428.68 371.744 427.033L369.938 430.602C372.579 431.938 374.561 433.75 375.951 436.036L379.368 433.957ZM371.761 427.042C368.472 425.337 364.626 424.527 360.295 424.527V428.527C364.131 428.527 367.316 429.244 369.921 430.593L371.761 427.042ZM360.295 424.527H338.508V428.527H360.295V424.527ZM336.508 426.527V458.487H340.508V426.527H336.508ZM338.508 414.305H358.057V410.305H338.508V414.305ZM358.057 414.305C361.713 414.305 365.073 413.637 368.1 412.261L366.445 408.62C364.003 409.729 361.219 410.305 358.057 410.305V414.305ZM368.12 412.252C371.153 410.834 373.592 408.813 375.374 406.181L372.062 403.939C370.718 405.924 368.861 407.49 366.426 408.629L368.12 412.252ZM375.37 406.187C377.223 403.47 378.115 400.296 378.115 396.751H374.115C374.115 399.598 373.409 401.963 372.065 403.934L375.37 406.187ZM378.115 396.751C378.115 391.992 376.408 387.968 372.992 384.836L370.289 387.785C372.838 390.122 374.115 393.057 374.115 396.751H378.115ZM373.001 384.844C369.547 381.64 364.588 380.209 358.483 380.209V384.209C364.027 384.209 367.839 385.512 370.28 387.777L373.001 384.844ZM358.483 380.209H338.508V384.209H358.483V380.209ZM336.508 382.209V412.305H340.508V382.209H336.508ZM417.33 475H415.33V477H417.33V475ZM417.33 365.909V363.909H415.33V365.909H417.33ZM437.092 365.909H439.092V363.909H437.092V365.909ZM437.092 412.092H435.092V414.092H437.092V412.092ZM487.643 412.092V414.092H489.643V412.092H487.643ZM487.643 365.909V363.909H485.643V365.909H487.643ZM507.458 365.909H509.458V363.909H507.458V365.909ZM507.458 475V477H509.458V475H507.458ZM487.643 475H485.643V477H487.643V475ZM487.643 428.658H489.643V426.658H487.643V428.658ZM437.092 428.658V426.658H435.092V428.658H437.092ZM437.092 475V477H439.092V475H437.092ZM419.33 475V365.909H415.33V475H419.33ZM417.33 367.909H437.092V363.909H417.33V367.909ZM435.092 365.909V412.092H439.092V365.909H435.092ZM437.092 414.092H487.643V410.092H437.092V414.092ZM489.643 412.092V365.909H485.643V412.092H489.643ZM487.643 367.909H507.458V363.909H487.643V367.909ZM505.458 365.909V475H509.458V365.909H505.458ZM507.458 473H487.643V477H507.458V473ZM489.643 475V428.658H485.643V475H489.643ZM487.643 426.658H437.092V430.658H487.643V426.658ZM435.092 428.658V475H439.092V428.658H435.092ZM437.092 473H417.33V477H437.092V473ZM609.491 475V477H611.491V475H609.491ZM589.676 475H587.676V477H589.676V475ZM589.676 382.422H591.676V380.422H589.676V382.422ZM559.473 384.606L560.301 386.427L560.31 386.422L559.473 384.606ZM552.495 390.891L550.744 389.926L550.74 389.934L552.495 390.891ZM552.495 410.6L550.75 411.577L550.756 411.587L552.495 410.6ZM559.42 416.619L558.61 418.448L558.622 418.453L558.635 418.459L559.42 416.619ZM597.985 418.643H599.985V416.643H597.985V418.643ZM597.985 435.05V437.05H599.985V435.05H597.985ZM547.595 430.895L546.718 432.693L546.727 432.697L547.595 430.895ZM534.491 419.016L532.755 420.01L532.759 420.017L532.764 420.024L534.491 419.016ZM534.438 382.528L532.693 381.55L532.691 381.554L534.438 382.528ZM609.491 365.909H611.491V363.909H609.491V365.909ZM553.081 425.568V423.568H551.895L551.326 424.609L553.081 425.568ZM574.654 425.568L576.417 426.514L577.998 423.568H574.654V425.568ZM548.128 475V477H549.324L549.89 475.946L548.128 475ZM526.075 475L524.32 474.041L522.703 477H526.075V475ZM609.491 473H589.676V477H609.491V473ZM591.676 475V382.422H587.676V475H591.676ZM589.676 380.422H571.565V384.422H589.676V380.422ZM571.565 380.422C566.486 380.422 562.144 381.174 558.637 382.789L560.31 386.422C563.124 385.126 566.843 384.422 571.565 384.422V380.422ZM558.646 382.785C555.164 384.368 552.497 386.746 550.744 389.926L554.247 391.857C555.548 389.497 557.533 387.685 560.301 386.427L558.646 382.785ZM550.74 389.934C549.053 393.025 548.258 396.674 548.258 400.799H552.258C552.258 397.183 552.954 394.227 554.251 391.849L550.74 389.934ZM548.258 400.799C548.258 404.922 549.053 408.546 550.75 411.577L554.24 409.623C552.955 407.328 552.258 404.418 552.258 400.799H548.258ZM550.756 411.587C552.486 414.636 555.147 416.913 558.61 418.448L560.23 414.791C557.443 413.556 555.487 411.82 554.235 409.613L550.756 411.587ZM558.635 418.459C562.124 419.948 566.427 420.643 571.458 420.643V416.643C566.759 416.643 563.037 415.989 560.205 414.78L558.635 418.459ZM571.458 420.643H597.985V416.643H571.458V420.643ZM595.985 418.643V435.05H599.985V418.643H595.985ZM597.985 433.05H568.795V437.05H597.985V433.05ZM568.795 433.05C560.625 433.05 553.874 431.698 548.462 429.093L546.727 432.697C552.822 435.631 560.204 437.05 568.795 437.05V433.05ZM548.471 429.097C543.044 426.45 538.986 422.753 536.219 418.009L532.764 420.024C535.962 425.507 540.64 429.728 546.718 432.693L548.471 429.097ZM536.227 418.023C533.481 413.226 532.07 407.509 532.07 400.799H528.07C528.07 408.081 529.606 414.508 532.755 420.01L536.227 418.023ZM532.07 400.799C532.07 394.123 533.464 388.379 536.185 383.503L532.691 381.554C529.588 387.118 528.07 393.554 528.07 400.799H532.07ZM536.182 383.507C538.924 378.618 542.954 374.804 548.343 372.059L546.527 368.495C540.482 371.574 535.847 375.927 532.693 381.55L536.182 383.507ZM548.343 372.059C553.707 369.327 560.408 367.909 568.529 367.909V363.909C559.96 363.909 552.597 365.403 546.527 368.495L548.343 372.059ZM568.529 367.909H609.491V363.909H568.529V367.909ZM607.491 365.909V475H611.491V365.909H607.491ZM553.081 427.568H574.654V423.568H553.081V427.568ZM572.892 424.622L546.365 474.054L549.89 475.946L576.417 426.514L572.892 424.622ZM548.128 473H526.075V477H548.128V473ZM527.83 475.959L554.836 426.527L551.326 424.609L524.32 474.041L527.83 475.959Z" fill="white" mask="url(#path-1-outside-1_187_633)"/>
</svg>
