<svg width="720" height="429" viewBox="0 0 720 429" fill="none" xmlns="http://www.w3.org/2000/svg">
<path d="M719.822 0.682917L492.776 42.9164L642.874 218.427L719.822 0.682917ZM269.196 189.683L286.051 178.916L273.541 159.332L256.039 174.62L269.196 189.683ZM350.321 316.683L333.467 327.449L345.845 346.828L363.32 331.883L350.321 316.683ZM26.4787 428.246L282.353 204.746L256.039 174.62L0.164568 398.12L26.4787 428.246ZM252.341 200.449L333.467 327.449L367.176 305.916L286.051 178.916L252.341 200.449ZM363.32 331.883L596.024 132.872L570.026 102.473L337.323 301.483L363.32 331.883Z" fill="#1C1634"/>
</svg>
